<svg id="Capa_1" enable-background="new 0 0 511.792 511.792" height="512" viewBox="0 0 511.792 511.792" width="512" xmlns="http://www.w3.org/2000/svg"><g><g><path d="m156.391 394.376 6.604 29.34 10.02 59.38c2.06 12.24 12.66 21.2 25.07 21.2h115.62c12.41 0 23.01-8.96 25.07-21.2l10.02-59.38 8.207-29.34z" fill="#c68d7a"/><g><path d="m338.048 365.04 35.483-51.746c57.08-83.242 46.982-195.296-24.061-266.992-51.265-51.736-134.882-51.736-186.147 0-71.044 71.696-81.142 183.75-24.061 266.992l35.483 51.746 29.04 37.649h114.518z" fill="#80d261"/><path d="m307.265 365.04 22.106-51.746c35.561-83.242 29.27-195.296-14.99-266.992-31.938-51.736-84.032-51.736-115.97 0-44.26 71.696-50.552 183.75-14.99 266.992l22.106 51.746 25.84 43.452h59.949z" fill="#97da7b"/><path d="m276.23 365.04 8.619-51.746c13.866-83.242 11.413-195.296-5.845-266.992-12.453-51.736-32.765-51.736-45.218 0-17.258 71.696-19.711 183.75-5.845 266.992l8.619 51.746 7.484 45.832h25.794z" fill="#80d261"/><g id="XMLID_268_"><g><path d="m197.863 394.376h-2.438-39.034l6.604 29.34 10.02 59.38c2.06 12.24 12.66 21.2 25.07 21.2h41.472c-12.41 0-23.01-8.96-25.07-21.2l-2.81-16.651c-2.006-11.889 7.157-22.729 19.215-22.729h114.528l3.375-20 8.207-29.34z" fill="#bc7c63"/><path d="m379.746 383.696v21.37c0 10.3-8.35 18.65-18.65 18.65h-12.3-185.8-12.3c-10.3 0-18.65-8.35-18.65-18.65v-21.37c0-10.3 8.35-18.66 18.65-18.66h210.4c10.3 0 18.65 8.36 18.65 18.66z" fill="#d9b3a6"/></g></g></g></g><path d="m430.293 156.866c-1.147-3.981-5.306-6.279-9.283-5.131l-6.962 2.006c-.534-2.823-1.106-5.641-1.754-8.45-.931-4.037-4.959-6.555-8.994-5.622-4.036.931-6.553 4.958-5.621 8.994 12.743 55.234 1.688 113.694-30.333 160.39l-33.249 48.488h-15.471l17.643-41.3c17.644-41.3 25.822-91.443 23.028-141.192-2.798-49.844-16.483-96.966-38.534-132.686-3.519-5.7-7.301-10.858-11.304-15.462 12.732 6.063 24.453 14.357 34.684 24.681 19.198 19.375 34.062 41.994 44.175 67.227 1.542 3.844 5.91 5.712 9.752 4.171 3.845-1.541 5.713-5.907 4.172-9.752-2.206-5.502-4.632-10.883-7.254-16.148l6.119-4.838c3.249-2.569 3.801-7.286 1.231-10.535-2.567-3.25-7.285-3.799-10.534-1.232l-4.07 3.218c-9.111-15.461-20.122-29.74-32.936-42.67-3.088-3.116-6.301-6.061-9.621-8.843l1.787-2.237c2.585-3.237 2.057-7.956-1.18-10.541-3.238-2.585-7.955-2.057-10.541 1.18l-2.069 2.591c-22.543-15.075-49.022-23.173-76.779-23.173-28.024 0-54.747 8.252-77.428 23.608l-2.417-3.026c-2.585-3.235-7.303-3.766-10.541-1.181-3.237 2.585-3.765 7.304-1.181 10.541l2.191 2.744c-3.108 2.634-6.123 5.408-9.025 8.337-13.089 13.209-24.167 27.76-33.22 43.236l-4.786-3.784c-3.249-2.569-7.965-2.019-10.535 1.232-2.569 3.249-2.018 7.966 1.232 10.535l6.864 5.427c-8.874 17.955-15.16 36.934-18.808 56.361l-7.959-2.293c-3.981-1.145-8.136 1.15-9.283 5.131-1.146 3.98 1.15 8.136 5.131 9.283l9.833 2.833c-2.42 20.665-1.896 41.657 1.632 62.301l-5.644 2.084c-3.886 1.435-5.873 5.749-4.438 9.634 1.119 3.029 3.986 4.904 7.037 4.904.863 0 1.741-.15 2.597-.466l3.526-1.302c4.334 17.784 10.952 35.177 19.901 51.734l-4.268 2.701c-3.5 2.215-4.542 6.848-2.327 10.348 1.427 2.256 3.859 3.49 6.345 3.49 1.371 0 2.759-.376 4.003-1.164l3.835-2.427c1.428 2.256 2.891 4.499 4.412 6.716l27.432 40.005h-9.809c-14.423 0-26.156 11.733-26.156 26.156v21.365c0 14.422 11.733 26.156 26.156 26.156h5.954l2.704 16.02c.689 4.083 4.554 6.835 8.644 6.147 4.084-.689 6.836-4.559 6.147-8.644l-2.282-13.524h104.86c4.143 0 7.5-3.358 7.5-7.5s-3.357-7.5-7.5-7.5h-126.027c-6.151 0-11.156-5.005-11.156-11.156v-21.365c0-6.151 5.005-11.156 11.156-11.156h210.398c6.151 0 11.155 5.005 11.155 11.156v21.365c0 6.151-5.004 11.156-11.155 11.156h-50.205c-4.143 0-7.5 3.358-7.5 7.5s3.357 7.5 7.5 7.5h29.038l-8.547 50.635c-1.461 8.656-8.893 14.939-17.672 14.939h-115.627c-8.779 0-16.211-6.283-17.672-14.939l-.944-5.591c-.689-4.084-4.561-6.835-8.644-6.147-4.084.689-6.836 4.56-6.147 8.644l.944 5.59c2.684 15.901 16.336 27.443 32.463 27.443h115.627c16.127 0 29.779-11.542 32.463-27.443l8.968-53.131h5.955c14.422 0 26.155-11.734 26.155-26.156v-21.365c0-14.423-11.733-26.156-26.155-26.156h-8.81l27.432-40.004c1.417-2.066 2.78-4.16 4.12-6.268l3.126 1.978c1.244.788 2.632 1.164 4.004 1.164 2.485 0 4.917-1.234 6.344-3.49 2.216-3.5 1.174-8.133-2.326-10.348l-3.528-2.233c8.911-16.43 15.619-33.882 20.045-51.875l2.642.976c.857.316 1.734.466 2.598.466 3.051 0 5.918-1.875 7.036-4.904 1.436-3.885-.551-8.199-4.437-9.634l-4.739-1.75c3.592-20.681 4.221-41.887 1.744-62.928l8.816-2.54c3.981-1.149 6.277-5.305 5.131-9.285zm-107.819 153.482-20.16 47.192h-17.23l7.165-43.014c13.989-83.989 11.486-197.531-5.951-269.98-2.269-9.425-4.839-17.356-7.698-23.804 10.872 5.767 20.922 15.765 29.4 29.499 43.009 69.672 49.097 179.063 14.474 260.107zm-79.559 47.192-7.576-45.479c-13.7-82.246-11.286-193.275 5.739-264.004 6.542-27.175 13.858-33.057 15.318-33.057 1.461 0 8.776 5.882 15.317 33.057 17.024 70.729 19.438 181.759 5.738 264.004l-7.575 45.479zm-97.469-48.488c-54.962-80.153-45.204-188.436 23.204-257.471 10.231-10.325 21.954-18.619 34.687-24.683-4.004 4.606-7.789 9.763-11.308 15.464-6.485 10.506-12.313 22.088-17.319 34.425-1.558 3.838.291 8.212 4.128 9.77 3.84 1.558 8.212-.29 9.77-4.129 4.693-11.562 10.138-22.392 16.185-32.186 8.48-13.736 18.531-23.734 29.405-29.501-2.86 6.447-5.432 14.378-7.702 23.807-17.439 72.448-19.942 185.99-5.952 269.979l7.165 43.014h-17.231l-20.161-47.192c-12.377-28.974-19.938-62.789-21.865-97.789-1.891-34.345 1.65-69.146 10.238-100.641 1.09-3.996-1.267-8.119-5.263-9.209-3.996-1.088-8.119 1.266-9.209 5.263-18.705 68.592-14.105 146.449 12.304 208.268l17.643 41.3h-15.473z"/></g></svg>