<svg id="Capa_1" enable-background="new 0 0 508.198 508.198" height="512" viewBox="0 0 508.198 508.198" width="512" xmlns="http://www.w3.org/2000/svg"><g><g><path d="m224.158 166.025 8.69-87.219c1.712-17.186 21.321-26.143 35.432-16.186l48.72 34.377 30.554 35.938-143.008 105.17z" fill="#a6e7f0"/><g><path d="m329.249 71.415c0-34.661 29.016-62.672 64.033-61.02 32.715 1.543 58.147 29.165 58.147 61.916v173.954h-30v-174.85c0-17.936-15.266-32.373-33.487-30.999-16.309 1.229-28.693 15.274-28.693 31.629v127.359h-30z" fill="#6bd9e7"/></g><path d="m97.978 334.596h235.254v38.573h-235.254z" fill="#a6e7f0"/><path d="m337.251 112.084-20.25-15.09c-9.35-6.96-22.43-5.81-30.41 2.68l-115.93 123.22c-8.02 8.51-8.34 21.7-.75 30.6l16.62 19.48 64.307-7.138 106.049-106.049z" fill="#f9f7f8"/><path d="m487.091 223.944-42.649 10.758-131.902 131.902-5.929 46.91c15.91 15.9 42.1 15.86 57.95-.7l124.88-130.5c16.04-16.76 14.67-43.29-2.35-58.37z" fill="#f9f7f8"/><g><path d="m337.865 379.928c-.174-.174-7.131-8.283-17.851-20.797l-7.474 7.474-5.929 46.91c15.91 15.9 42.1 15.86 57.95-.7l29.191-30.504c-16.34 13.716-40.698 12.764-55.887-2.383z" fill="#efedef"/><path d="m198.215 216.806c-4.254-4.977-6.059-11.27-5.484-17.37l-22.069 23.457c-8.02 8.51-8.34 21.7-.75 30.6l16.62 19.48 54.555-6.056c-23.931-27.967-42.872-50.111-42.872-50.111z" fill="#efedef"/><g id="XMLID_246_"><g><path d="m487.091 223.944-.23.27-180.16 189.21-.09.09c-.77-.77-1.51-1.57-2.23-2.41l-117.85-138.13 150.72-160.89 147.12 109.64c.95.71 1.86 1.45 2.72 2.22z" fill="#a6e7f0"/></g></g><path d="m337.865 379.928c-.601-.6-81.832-95.537-120.111-140.282l-31.222 33.329 117.85 138.13c.72.84 1.46 1.64 2.23 2.41l.09-.09 31.547-33.132c-.127-.125-.259-.24-.384-.365z" fill="#6bd9e7"/><g id="XMLID_247_"><g><g fill="#f9f7f8"><path d="m344.591 208.774c8.8 8.8 8.8 23.07 0 31.87l-11.36 11.36-8.79-8.79c-8.8-8.8-8.8-23.06 0-31.86l8.57-8.58c1.54-1.54 4.04-1.54 5.58 0z"/><path d="m333.231 252.004-23.18 23.18c-8.73 8.74-22.9 8.74-31.63 0l-14.86-14.86c-1.54-1.54-1.54-4.04 0-5.58l20.39-20.39c8.73-8.73 22.9-8.73 31.63 0l8.86 8.86z"/></g></g></g><path d="m97.978 334.596h50.651v38.573h-50.651z" fill="#6bd9e7"/><path d="m93.147 408.651h-12.072c-3.281 0-5.941-2.66-5.941-5.941v-97.655c0-3.281 2.66-5.941 5.941-5.941h12.073c19.596 0 35.481 15.886 35.481 35.481v38.574c0 19.596-15.886 35.482-35.482 35.482z" fill="#f3f0f3"/></g></g><g><path d="m508.031 250.253c-1.148-13.722-8.14-26.312-19.182-34.541l-29.92-22.297v-49.205c0-4.142-3.358-7.5-7.5-7.5s-7.5 3.358-7.5 7.5v38.027l-15-11.179v-99.643c0-10.69-4.507-21.002-12.366-28.292-7.966-7.388-18.33-11.001-29.185-10.187-19.979 1.506-35.629 18.685-35.629 39.108v41.496l-15-11.178v-30.947c0-14.769 5.906-28.536 16.629-38.765 10.711-10.218 24.752-15.463 39.55-14.764 28.599 1.349 51 25.255 51 54.425v39.937c0 4.142 3.358 7.5 7.5 7.5s7.5-3.358 7.5-7.5v-39.937c0-37.193-28.68-67.681-65.293-69.408-18.923-.892-36.903 5.817-50.611 18.894-13.72 13.088-21.275 30.709-21.275 49.619v19.768l-49.144-34.69c-8.833-6.232-19.975-7.271-29.807-2.78s-16.341 13.594-17.413 24.35l-8.437 84.681-22.087 23.475c-2.838 3.017-2.694 7.763.323 10.602 3.017 2.838 7.763 2.694 10.602-.323l86.264-91.687c5.377-5.714 14.176-6.489 20.468-1.799l13.912 10.368-139.606 148.379-11.205-13.133c-5.119-6-4.903-14.855.5-20.599l7.754-8.242c2.838-3.017 2.694-7.763-.323-10.602s-7.764-2.694-10.602.323l-7.754 8.242c-10.655 11.324-11.079 28.784-.987 40.612l58.642 68.733h-87.389c-3.56-20.135-21.172-35.481-42.313-35.481h-12.072c-7.411 0-13.44 6.029-13.44 13.44v97.655c0 7.411 6.029 13.44 13.44 13.44h12.073c21.141 0 38.753-15.346 42.313-35.481h133.097l30.116 35.298c8.808 10.324 21.639 16.467 35.204 16.854.456.013.91.02 1.364.02 13.08 0 25.677-5.363 34.744-14.839l124.872-130.5c9.519-9.947 14.321-23.524 13.173-37.247zm-386.902 122.916c0 15.429-12.552 27.981-27.981 27.981h-10.514v-94.536h10.513c15.429 0 27.981 12.552 27.981 27.981v38.574zm245.62-301.125c0-12.623 9.557-23.231 21.757-24.15 6.641-.504 12.987 1.71 17.857 6.227 4.809 4.46 7.566 10.763 7.566 17.293v88.465l-47.18-35.16zm-85.624 22.488-47.318 50.292 6.504-65.274c.537-5.386 3.796-9.944 8.72-12.194 4.922-2.25 10.503-1.728 14.925 1.392l26.796 18.908c-3.536 1.599-6.819 3.892-9.627 6.876zm-144.996 271.137v-23.574h99.518l20.112 23.574zm347.891-88.537-124.872 130.5c-6.455 6.746-15.491 10.464-24.843 10.196-5.944-.17-11.679-1.951-16.629-5.053l124.204-130.446c2.856-3 2.74-7.747-.26-10.604-2.999-2.855-7.747-2.739-10.604.26l-124.189 130.43-110.209-129.175 141.918-150.839 137.406 102.4-22.862 24.011c-2.856 3-2.74 7.747.26 10.604 1.452 1.382 3.313 2.068 5.171 2.068 1.981 0 3.958-.78 5.433-2.328l23.032-24.189c3.456 4.812 5.603 10.514 6.107 16.538.79 9.441-2.514 18.782-9.063 25.627z"/><path d="m343.837 252.006 6.059-6.059c11.709-11.71 11.709-30.763 0-42.472l-6-6c-2.162-2.162-5.037-3.353-8.094-3.353s-5.932 1.191-8.094 3.353l-8.572 8.572c-4.613 4.613-7.401 10.367-8.379 16.362-10.737-4.232-23.447-2.02-32.114 6.646l-20.386 20.387c-4.462 4.462-4.463 11.724 0 16.188l14.857 14.857c5.823 5.823 13.472 8.734 21.122 8.734 7.649 0 15.298-2.911 21.121-8.734l17.874-17.874 22.356 22.356c1.464 1.464 3.384 2.197 5.303 2.197s3.839-.732 5.303-2.197c2.929-2.929 2.929-7.678 0-10.606zm-14.094-35.353 6.059-6.059 3.488 3.487c5.861 5.861 5.861 15.398 0 21.259l-6.059 6.059-3.488-3.488c-5.861-5.861-5.861-15.397 0-21.258zm-24.993 53.227c-5.798 5.796-15.232 5.797-21.03 0l-12.344-12.345 17.874-17.874c5.797-5.797 15.231-5.798 21.03 0l12.344 12.345z"/><path d="m46.048 376.333c-8.849 0-16.048 7.199-16.048 16.048v16.269c0 4.142 3.358 7.5 7.5 7.5s7.5-3.358 7.5-7.5v-16.269c0-.578.47-1.048 1.048-1.048 4.142 0 7.5-3.358 7.5-7.5s-3.358-7.5-7.5-7.5z"/><path d="m37.5 434.381c-4.142 0-7.5 3.358-7.5 7.5v53.425c0 4.142 3.358 7.5 7.5 7.5s7.5-3.358 7.5-7.5v-53.425c0-4.142-3.358-7.5-7.5-7.5z"/><path d="m46.048 321.881c-25.391 0-46.048 20.657-46.048 46.048v129.945c0 4.142 3.358 7.5 7.5 7.5s7.5-3.358 7.5-7.5v-129.945c0-17.12 13.928-31.048 31.048-31.048 4.142 0 7.5-3.358 7.5-7.5s-3.358-7.5-7.5-7.5z"/></g></g></svg>